<?xml version="1.0" encoding="utf-8"?>
<!-- Generator: Adobe Illustrator 17.0.0, SVG Export Plug-In . SVG Version: 6.00 Build 0)  -->
<!DOCTYPE svg PUBLIC "-//W3C//DTD SVG 1.1//EN" "http://www.w3.org/Graphics/SVG/1.1/DTD/svg11.dtd">
<svg version="1.1" id="Layer_1" xmlns="http://www.w3.org/2000/svg" xmlns:xlink="http://www.w3.org/1999/xlink" x="0px" y="0px"
	 width="792px" height="612px" viewBox="0 0 792 612" enable-background="new 0 0 792 612" xml:space="preserve">
<g>
	
		<path fill="none" stroke="#000000" stroke-width="0.792" stroke-linecap="round" stroke-linejoin="round" stroke-miterlimit="10" d="
		M378.092,235.22h-0.144 M380.108,235.22h0.144 M382.556,235.22h0.144 M413.372,314.132v6.192 M415.1,310.532h0.144
		 M415.244,310.532v7.776 M427.628,340.916h0.144"/>
	
		<path fill="none" stroke="#000000" stroke-width="1.152" stroke-linecap="round" stroke-linejoin="round" stroke-miterlimit="10" d="
		M364.988,219.38h2.592 M367.58,219.38v2.592 M362.54,219.38h-2.016 M360.524,219.38v2.736 M360.668,224.996v2.736 M360.668,227.732
		h1.584 M365.42,227.732h2.16 M367.58,227.732v-2.592 M364.988,234.932h2.592 M367.58,234.932v2.592 M362.54,234.932h-2.016
		 M360.524,234.932v2.736 M360.668,240.548v2.736 M360.668,243.284h1.584 M365.42,243.284h2.16 M367.58,243.284v-2.592
		 M390.476,219.38h2.592 M393.068,219.38v2.592 M388.028,219.38h-2.016 M386.012,219.38v2.736 M386.156,224.996v2.736
		 M386.156,227.732h1.584 M390.908,227.732h2.16 M393.068,227.732v-2.592 M390.476,234.932h2.592 M393.068,234.932v2.592
		 M388.028,234.932h-2.016 M386.012,234.932v2.736 M386.156,240.548v2.736 M386.156,243.284h1.584 M390.908,243.284h2.16
		 M393.068,243.284v-2.592 M382.412,234.788h-8.64 M373.772,234.788l-0.144,0.144 M373.628,243.428h6.912 M382.844,243.284h0.288
		 M383.132,243.284v3.168 M383.132,246.452l-1.584,1.584 M381.548,248.036v1.44 M381.548,249.476l0.72,0.72 M382.268,250.196h7.488
		 M389.756,250.196v0.144 M389.756,250.34v4.32 M389.756,254.66h-6.912 M382.844,254.66l-1.152,1.152 M381.692,255.812h-3.168
		 M378.524,255.812v-7.488 M378.524,248.324l-0.72-0.72 M377.804,247.604h-7.776 M370.028,247.604l-1.152,1.152 M368.876,248.756
		v0.144 M368.876,248.9l-0.144,0.144 M368.732,249.044v3.888 M368.732,252.932l-0.288,0.288 M368.444,253.22h-4.464 M363.98,253.22
		l-0.144-0.144 M363.836,253.076v-4.608 M363.836,248.468l3.456-3.456 M367.292,245.012h4.464 M371.756,245.012l1.728-1.728
		 M363.548,248.468h-3.888 M359.66,248.468l-1.584,1.584 M358.076,250.052v6.624 M358.076,256.676l1.44,1.44 M359.516,258.116h3.888
		 M363.404,258.116l0.288-0.288 M363.692,257.828v-4.464 M363.692,253.364l0.288-0.288 M363.98,258.116h4.176 M368.156,258.116
		l4.464-4.464 M372.62,253.652v-2.88 M372.62,250.772h3.312 M375.932,250.772l0.144-0.144 M376.076,250.628v5.04 M376.076,255.668
		l-4.032,4.032 M372.044,259.7v1.44 M372.044,261.14l-3.312,3.312 M368.732,264.452h-4.752 M363.98,264.452l-0.288-0.288
		 M363.692,264.164v-5.904 M363.404,263.444h-3.888 M378.812,256.388h-0.576 M378.236,256.388l-2.304,2.304 M375.932,258.692v4.608
		 M375.932,263.3h-2.592 M373.34,263.3l-1.584-1.584 M378.812,256.82v1.584 M378.812,258.404l-0.144,0.144 M378.668,258.692v9.504
		 M378.668,268.196l-0.288,0.288 M378.38,268.484h-3.024 M375.356,268.484l-4.176,4.176 M371.18,272.66v12.384 M371.18,285.044
		h-6.768 M364.412,285.044l-3.024,3.024 M361.388,288.068v7.344 M361.388,295.412l4.608,4.608 M365.996,300.02h10.8 M376.796,300.02
		l7.056,7.056 M383.852,307.076h2.304 M386.156,307.076l0.144,0.144 M386.3,307.22v2.304 M386.3,309.524l-0.432,0.432
		 M385.868,309.956h-2.592 M383.276,309.956l-0.72,0.72 M382.556,310.676v3.312 M382.556,313.988v0.432 M382.556,314.42l0.576,0.576
		 M383.132,314.996h9.504 M392.636,314.996l0.72-0.72 M393.356,314.276v-3.456 M393.356,310.82l-0.72-0.72 M392.636,310.1h-3.024
		 M389.612,310.1v-5.04 M389.612,305.06l-1.008-1.008 M388.604,304.052h-3.312 M385.292,304.052l-8.496-8.496 M376.796,295.556
		h-11.088 M365.708,295.556l-0.864-0.864 M364.844,294.692v-3.744 M364.844,290.948l0.432-0.432 M365.276,290.516h13.248
		 M378.524,290.516l0.864-0.864 M379.388,289.652v-0.144 M379.388,289.508l0.144-0.144 M379.532,289.364v-6.48 M379.532,282.884
		l-4.752-4.752 M374.78,278.132v-3.6 M374.78,274.532l1.296-1.296 M376.076,273.236h4.464 M380.54,273.236l0.864-0.864
		 M381.404,272.372V270.5 M381.404,270.5l0.288-0.288 M381.692,270.212h4.896 M386.588,270.212l0.288-0.288 M386.876,269.924v-2.304
		 M386.876,267.62l-0.144-0.144 M386.732,267.476l-0.144-0.144 M386.588,267.332h-4.464 M382.124,267.332l-0.72-0.72
		 M381.404,266.612V256.1 M386.732,267.476v-5.76 M386.732,261.716l0.144-0.144 M386.876,261.572h2.736 M389.612,261.572
		l0.288-0.288 M389.9,261.284v-3.744 M389.9,257.54l-0.288-0.288 M389.612,257.252h-7.92 M381.692,257.252l-0.144,0.144
		 M386.588,270.644v3.456 M386.588,274.1h2.88 M389.468,274.1v5.472 M389.468,279.572h-6.48 M382.988,279.572l-0.576,0.576
		 M382.412,280.148v11.808 M382.412,291.956l-4.464,4.464 M389.756,250.34h4.896 M389.756,254.804h4.896 M389.756,257.252h4.896
		 M389.9,261.572h5.04 M395.228,279.572v-8.496 M395.228,271.076l-1.152-1.152 M394.076,269.924h-7.2 M389.324,279.716h13.68
		 M403.004,279.716l0.144,0.144 M403.148,279.86v0.144 M403.148,280.004v6.048 M403.148,286.052l-0.144,0.144 M403.004,286.196
		h-15.12 M387.884,286.196l-0.432-0.432 M387.452,285.764v-5.76 M387.452,280.004l0.288-0.288 M401.42,279.428v-9.504
		 M401.42,269.924l-2.448-2.448 M398.972,267.476h-9.792 M389.18,267.476v-2.448 M389.18,265.028l0.144-0.144 M389.324,264.884
		v-0.288 M389.324,264.596H400.7 M400.7,264.596l5.472,5.472 M406.172,270.068v9.36 M406.172,279.428l-0.72,0.72 M405.452,280.148
		h-2.16 M403.292,280.148l-0.144-0.144 M395.66,312.98h9.36 M405.02,312.98v-4.032 M405.02,308.948l-0.864-0.864 M404.156,308.084
		h-8.352 M395.804,308.084h-1.584 M394.22,308.084l-0.576,0.576 M393.644,308.66v3.6 M393.644,312.26l0.576,0.576 M394.22,312.836
		h1.152 M395.372,312.836l0.144,0.144 M414.812,310.1l-0.864-0.864 M413.948,309.236h-5.184 M408.764,309.236l-0.576,0.576
		 M408.188,309.812v3.6 M408.188,313.412l0.864,0.864 M409.052,314.276h4.176"/>
	<g>
		<defs>
			<rect id="SVGID_1_" x="337" y="213" width="118.2" height="186.96"/>
		</defs>
		<clipPath id="SVGID_2_">
			<use xlink:href="#SVGID_1_"  overflow="visible"/>
		</clipPath>
		
			<path clip-path="url(#SVGID_2_)" fill="none" stroke="#000000" stroke-width="1.152" stroke-linecap="round" stroke-linejoin="round" stroke-miterlimit="10" d="
			M413.084,320.324h-3.888 M409.196,320.324l-1.152,1.152 M408.044,321.476v3.744 M408.044,325.22l0.576,0.576 M408.62,325.796
			h4.032 M412.652,325.796v-0.144 M412.652,325.652v-0.864 M412.652,324.788l3.024-3.024 M415.676,321.764v-3.168 M415.676,318.596
			l-0.288-0.288 M401.132,313.268v2.016 M401.132,315.284l-3.024,3.024 M398.108,318.308h-4.464 M393.644,318.308l-0.576-0.576
			 M391.628,322.34l2.16,2.16 M393.788,324.5v0.144 M393.788,324.644l0.288,0.288 M394.076,324.932v21.024 M394.076,345.956
			l-2.448,2.448 M391.628,348.404h-9.36 M382.268,348.404l-0.576-0.576 M381.692,347.828H371.18 M371.18,347.828l-0.72,0.72
			 M370.46,348.548v4.032 M370.604,352.724l0.288,0.288 M370.892,353.012h20.736 M391.628,353.012l5.472-5.472 M397.1,347.54v-21.6
			 M397.1,325.94l7.344-7.344 M404.588,318.74h1.44 M406.028,318.74l2.304,2.304 M384.572,337.172h5.904 M390.476,337.172
			l0.576,0.576 M391.052,337.748v6.192 M391.052,343.94l-0.72,0.72 M390.332,344.66h-20.304 M370.028,344.66l-2.736,2.736
			 M367.292,347.396v5.472 M367.292,352.868l-1.008,1.008 M366.284,353.876h-9.648 M356.636,353.876l-1.008-1.008 M355.628,352.868
			v-3.456 M355.628,349.412l8.496-8.496 M364.124,340.916h26.784 M384.428,337.604H363.26 M363.26,337.604l-11.088,11.088
			 M352.172,348.692v10.368 M352.172,359.06l3.888,3.888 M356.06,362.948h16.848 M372.908,362.948l3.024-3.024 M375.932,359.924
			h14.112 M390.044,359.924l10.8-10.8 M400.844,349.124v-15.12 M400.844,334.004l3.6-3.6 M404.444,330.404h8.64 M413.084,330.404
			v-4.32 M413.084,326.084l-0.432-0.432 M356.204,363.092v3.744 M356.204,366.836l0.72,0.72 M356.924,367.556h4.32 M361.244,367.556
			l3.024,3.024 M364.268,370.58h43.776 M408.044,370.58l3.024-3.024 M411.068,367.556V351.86 M411.068,351.86l0.432-0.432
			 M411.5,351.428v-1.152 M411.5,348.98l-0.432-0.432 M411.068,348.548h-5.76 M405.308,348.548l-0.288,0.288 M405.02,348.836v2.304
			 M405.02,351.14l-16.272,16.272 M388.748,367.412h-21.024 M367.724,367.412l-0.72-0.72 M367.004,366.692v-3.456 M355.628,352.868
			v5.616 M355.628,358.484l1.44,1.44 M357.068,359.924h12.096 M369.164,359.924l1.44-1.44 M370.604,358.484v-5.76 M370.604,352.724
			l-0.144-0.144 M383.132,317.588v4.752 M383.132,322.34v7.2 M383.132,329.54h10.8 M391.484,322.34h-8.352 M383.276,317.588h9.504
			 M392.78,317.588l0.288,0.288 M384.716,337.028v-0.288 M384.716,336.74l-4.32-4.32 M380.396,332.42v-16.272 M380.396,316.148
			l2.16-2.16 M414.236,296.564h-17.712 M396.524,296.564l-0.144,0.144 M396.38,296.708v10.8 M396.38,307.508l-0.576,0.576
			 M415.388,312.26h4.608 M419.996,312.26l0.288,0.288 M420.284,312.548v8.064 M420.284,320.612l0.864,0.864 M421.148,321.476h2.736
			 M423.884,321.476l3.312,3.312 M427.196,324.788h2.016 M429.212,324.788l0.144,0.144 M429.356,324.932v2.448 M416.108,322.196
			v2.592 M416.108,324.788l1.296,1.296 M417.404,326.084h5.184 M422.588,326.084l0.144,0.144 M422.732,326.228v3.312
			 M422.732,329.54h4.176 M426.908,329.54l0.432,0.432 M417.116,326.516v4.32 M429.788,332.996v5.184 M429.788,338.18l-0.288,0.288
			 M429.644,343.94v2.736 M429.644,346.676v2.448 M429.644,349.124l-0.144,0.144 M429.788,354.452v5.328 M429.788,359.78
			l-2.304,2.304 M427.484,362.084h-4.32 M423.164,362.084l-0.576-0.576 M422.588,361.508v-3.744 M422.588,357.764l0.72-0.72
			 M423.308,357.044h4.176 M427.484,351.14h-4.608 M422.876,351.14v-4.608 M422.876,346.532l0.144-0.144 M423.02,346.388h4.176
			 M427.196,346.388l0.288-0.288 M427.484,340.772h-4.32 M423.164,340.772l-0.144-0.144 M423.02,340.628h-0.288 M422.732,340.628
			l-0.144,0.144 M422.588,340.772v-5.04 M422.588,335.732l0.432-0.432 M423.02,335.3h4.176 M418.844,340.34h-7.056 M411.788,340.34
			l-0.72,0.72 M411.068,341.06h-5.616 M405.452,341.06v3.456 M405.452,344.516l-0.144,0.144 M405.308,344.66h6.048 M411.356,344.66
			l0.864-0.864 M412.22,343.796h6.912 M419.132,343.796l0.144-0.144 M419.276,343.652v-2.88 M419.276,340.772l0.144-0.144
			 M411.644,345.236v0.144 M411.644,345.38l1.728,1.728 M413.372,347.108h6.336 M419.708,347.108v2.88 M419.708,349.988
			l-0.288,0.288 M419.42,350.276h-7.92 M405.308,348.548v-3.744 M437.132,376.196l-0.288-4.032 M436.844,372.164l-1.296-1.296
			 M435.548,370.868h-0.144 M435.404,370.868l-0.576-0.576 M434.828,370.292v-5.472 M434.828,364.82l-0.432-0.432 M434.396,364.388
			h-5.472 M428.924,364.388l-0.288-0.288 M428.636,364.1v-3.024 M434.54,364.388h4.032 M438.572,364.388l0.72-0.72 M439.436,363.524
			h9.792 M449.228,363.524l0.144-0.144 M449.372,363.38h0.432 M449.804,363.38l0.144-0.144 M449.948,363.236v-6.048
			 M449.948,357.188l-0.72-0.72 M449.228,356.468h-19.152 M430.076,356.468l-0.144-0.144 M430.076,354.308h3.744 M433.82,354.308
			l4.896-4.896 M438.716,349.412h10.368 M449.084,349.412l0.288-0.288 M449.372,349.124v-6.336 M449.372,342.788h-12.24
			 M437.132,342.788l-4.032,4.032 M433.1,346.82h-3.312 M429.788,346.82l-0.144-0.144 M430.076,334.58h2.592 M432.668,334.58
			l5.616-5.616 M438.284,328.964h11.664 M449.948,328.964l0.288,0.288 M450.236,329.252v6.768 M450.236,336.02l-0.288,0.288
			 M449.948,336.308h-10.944 M439.004,336.308l-4.032,4.032 M434.972,340.34v4.176 M434.972,344.516l-0.144,0.144 M435.404,331.7
			v-5.76 M435.404,325.94l3.6-3.6 M439.004,322.34h10.656 M449.66,322.34l0.288-0.288 M449.948,322.052v-6.768 M449.948,315.284
			l-0.432-0.432 M449.516,314.852h-11.232 M438.284,314.852l-9.792,9.792 M398.252,286.484v3.312"/>
	</g>
	
		<path fill="none" stroke="#000000" stroke-width="1.152" stroke-linecap="round" stroke-linejoin="round" stroke-miterlimit="10" d="
		M401.996,286.772v2.88 M402.428,297.284v3.024"/>
	
		<path fill="none" stroke="#000000" stroke-width="0.72" stroke-linecap="round" stroke-linejoin="round" stroke-miterlimit="10" d="
		M349.436,376.772v-1.296 M349.436,376.772h1.44"/>
</g>
</svg>
